<svg id="background_waves" viewBox="0 0 900 600" width="900" height="600" xmlns="http://www.w3.org/2000/svg" xmlns:xlink="http://www.w3.org/1999/xlink" version="1.1">
<style>
  #stop_1, #stop2 {
    stop_color: "rbg(0 29 43)";
  }
  #fill_1 {
    fill: "rbg(245 245 245)";
  }
</style>
<linearGradient id="grad" x1="0" x2="1" y1="0" y2="1">
  <stop offset="0%"  stop-opacity="0.5" id="stop_1" stop-color="rgb(200 200 200)" />
  <stop offset="20%" stop-color="rgb(245 245 245)" stop-opacity="1" />
  <stop offset="100%" stop-opacity="1" class="svg_color_1" id="stop_2" stop-color="rgb(245 245 245)"/>
</linearGradient>
<linearGradient id="grad2" x1="0" x2="0" y1="-50" y2="1">
  <stop offset="0%" stop-color="gray" stop-opacity="1"  />
  <stop offset="30%" stop-color="gray " stop-opacity="1"/>
  <stop offset="100%" stop-color="rgb(245 245 245)" stop-opacity="1" />
</linearGradient>
<rect x="0" y="0" width="900" height="600" class="svg_color_2" id="fill_1" fill="rgb(245 245 245)"></rect>

<path d="M0 76L25 93.3C50 110.7 100 145.3 150 159.2C200 173 250 166 300 158C350 150 400 141 450 121.3C500 101.7 550 71.3 600 69.7C650 68 700 95 750 119.3C800 143.7 850 165.3 875 176.2L900 187L900 601L875 601C850 601 800 601 750 601C700 601 650 601 600 601C550 601 500 601 450 601C400 601 350 601 300 601C250 601 200 601 150 601C100 601 50 601 25 601L0 601Z" fill="url(#grad)"></path>
<path d="M0 206L25 203.8C50 201.7 100 197.3 150 202.3C200 207.3 250 221.7 300 223.2C350 224.7 400 213.3 450 204.8C500 196.3 550 190.7 600 176.2C650 161.7 700 138.3 750 128.5C800 118.7 850 122.3 875 124.2L900 126L900 601L875 601C850 601 800 601 750 601C700 601 650 601 600 601C550 601 500 601 450 601C400 601 350 601 300 601C250 601 200 601 150 601C100 601 50 601 25 601L0 601Z" fill="url(#grad)"></path>
<path d="M0 142L25 145.3C50 148.7 100 155.3 150 173.5C200 191.7 250 221.3 300 236C350 250.7 400 250.3 450 239.2C500 228 550 206 600 207.7C650 209.3 700 234.7 750 233.5C800 232.3 850 204.7 875 190.8L900 177L900 601L875 601C850 601 800 601 750 601C700 601 650 601 600 601C550 601 500 601 450 601C400 601 350 601 300 601C250 601 200 601 150 601C100 601 50 601 25 601L0 601Z" fill="url(#grad)"></path>
<path d="M0 271L25 267.8C50 264.7 100 258.3 150 256.8C200 255.3 250 258.7 300 263.7C350 268.7 400 275.3 450 274.7C500 274 550 266 600 258.2C650 250.3 700 242.7 750 248.5C800 254.3 850 273.7 875 283.3L900 293L900 601L875 601C850 601 800 601 750 601C700 601 650 601 600 601C550 601 500 601 450 601C400 601 350 601 300 601C250 601 200 601 150 601C100 601 50 601 25 601L0 601Z" fill="url(#grad)"></path>
<path d="M0 293L25 302.7C50 312.3 100 331.7 150 339C200 346.3 250 341.7 300 332.2C350 322.7 400 308.3 450 297.5C500 286.7 550 279.3 600 272.7C650 266 700 260 750 256C800 252 850 250 875 249L900 248L900 601L875 601C850 601 800 601 750 601C700 601 650 601 600 601C550 601 500 601 450 601C400 601 350 601 300 601C250 601 200 601 150 601C100 601 50 601 25 601L0 601Z" fill="url(#grad)"></path>
<path d="M0 378L25 376.8C50 375.7 100 373.3 150 364.8C200 356.3 250 341.7 300 334.3C350 327 400 327 450 332.2C500 337.3 550 347.7 600 340.3C650 333 700 308 750 298.5C800 289 850 295 875 298L900 301L900 601L875 601C850 601 800 601 750 601C700 601 650 601 600 601C550 601 500 601 450 601C400 601 350 601 300 601C250 601 200 601 150 601C100 601 50 601 25 601L0 601Z" fill="url(#grad)"></path>
<path d="M0 349L25 349.5C50 350 100 351 150 361C200 371 250 390 300 404.3C350 418.7 400 428.3 450 416.8C500 405.3 550 372.7 600 365C650 357.3 700 374.7 750 378.8C800 383 850 374 875 369.5L900 365L900 601L875 601C850 601 800 601 750 601C700 601 650 601 600 601C550 601 500 601 450 601C400 601 350 601 300 601C250 601 200 601 150 601C100 601 50 601 25 601L0 601Z" fill="url(#grad)"></path>
<path d="M0 404L25 404.7C50 405.3 100 406.7 150 405.7C200 404.7 250 401.3 300 395C350 388.7 400 379.3 450 378.3C500 377.3 550 384.7 600 386.3C650 388 700 384 750 395.7C800 407.3 850 434.7 875 448.3L900 462L900 601L875 601C850 601 800 601 750 601C700 601 650 601 600 601C550 601 500 601 450 601C400 601 350 601 300 601C250 601 200 601 150 601C100 601 50 601 25 601L0 601Z" fill="url(#grad)"></path>
<path d="M0 483L25 479.7C50 476.3 100 469.7 150 470.2C200 470.7 250 478.3 300 485.5C350 492.7 400 499.3 450 500C500 500.7 550 495.3 600 490.8C650 486.3 700 482.7 750 469.7C800 456.7 850 434.3 875 423.2L900 412L900 601L875 601C850 601 800 601 750 601C700 601 650 601 600 601C550 601 500 601 450 601C400 601 350 601 300 601C250 601 200 601 150 601C100 601 50 601 25 601L0 601Z" fill="url(#grad)"></path>
<path d="M0 533L25 533.5C50 534 100 535 150 538.2C200 541.3 250 546.7 300 541.3C350 536 400 520 450 509.3C500 498.7 550 493.3 600 496.3C650 499.3 700 510.7 750 506.3C800 502 850 482 875 472L900 462L900 601L875 601C850 601 800 601 750 601C700 601 650 601 600 601C550 601 500 601 450 601C400 601 350 601 300 601C250 601 200 601 150 601C100 601 50 601 25 601L0 601Z" fill="url(#grad)"></path>
<path d="M0 558L25 551.8C50 545.7 100 533.3 150 526.3C200 519.3 250 517.7 300 523.7C350 529.7 400 543.3 450 545.3C500 547.3 550 537.7 600 540.3C650 543 700 558 750 567.8C800 577.7 850 582.3 875 584.7L900 587L900 601L875 601C850 601 800 601 750 601C700 601 650 601 600 601C550 601 500 601 450 601C400 601 350 601 300 601C250 601 200 601 150 601C100 601 50 601 25 601L0 601Z" fill="url(#grad)"></path>
</svg>