<svg id="visual" viewBox="0 0 960 540" width="960" height="540" xmlns="http://www.w3.org/2000/svg" xmlns:xlink="http://www.w3.org/1999/xlink" version="1.1"><path d="M0 12L11.5 21.8C23 31.7 46 51.3 68.8 62.2C91.7 73 114.3 75 137.2 73.2C160 71.3 183 65.7 205.8 63.8C228.7 62 251.3 64 274.2 67.7C297 71.3 320 76.7 342.8 81.2C365.7 85.7 388.3 89.3 411.2 87.5C434 85.7 457 78.3 480 68.3C503 58.3 526 45.7 548.8 51.2C571.7 56.7 594.3 80.3 617.2 82.2C640 84 663 64 685.8 58.5C708.7 53 731.3 62 754.2 65.7C777 69.3 800 67.7 822.8 70.3C845.7 73 868.3 80 891.2 74.5C914 69 937 51 948.5 42L960 33L960 0L948.5 0C937 0 914 0 891.2 0C868.3 0 845.7 0 822.8 0C800 0 777 0 754.2 0C731.3 0 708.7 0 685.8 0C663 0 640 0 617.2 0C594.3 0 571.7 0 548.8 0C526 0 503 0 480 0C457 0 434 0 411.2 0C388.3 0 365.7 0 342.8 0C320 0 297 0 274.2 0C251.3 0 228.7 0 205.8 0C183 0 160 0 137.2 0C114.3 0 91.7 0 68.8 0C46 0 23 0 11.5 0L0 0Z" fill="#1e293b"></path><path d="M0 77L11.5 95.8C23 114.7 46 152.3 68.8 170.3C91.7 188.3 114.3 186.7 137.2 193.8C160 201 183 217 205.8 211.5C228.7 206 251.3 179 274.2 164.7C297 150.3 320 148.7 342.8 167.7C365.7 186.7 388.3 226.3 411.2 218.2C434 210 457 154 480 148.5C503 143 526 188 548.8 221.3C571.7 254.7 594.3 276.3 617.2 272.8C640 269.3 663 240.7 685.8 218.2C708.7 195.7 731.3 179.3 754.2 160.3C777 141.3 800 119.7 822.8 128.7C845.7 137.7 868.3 177.3 891.2 183.7C914 190 937 163 948.5 149.5L960 136L960 31L948.5 40C937 49 914 67 891.2 72.5C868.3 78 845.7 71 822.8 68.3C800 65.7 777 67.3 754.2 63.7C731.3 60 708.7 51 685.8 56.5C663 62 640 82 617.2 80.2C594.3 78.3 571.7 54.7 548.8 49.2C526 43.7 503 56.3 480 66.3C457 76.3 434 83.7 411.2 85.5C388.3 87.3 365.7 83.7 342.8 79.2C320 74.7 297 69.3 274.2 65.7C251.3 62 228.7 60 205.8 61.8C183 63.7 160 69.3 137.2 71.2C114.3 73 91.7 71 68.8 60.2C46 49.3 23 29.7 11.5 19.8L0 10Z" fill="#25253c"></path><path d="M0 120L11.5 144.3C23 168.7 46 217.3 68.8 232.7C91.7 248 114.3 230 137.2 230.8C160 231.7 183 251.3 205.8 254C228.7 256.7 251.3 242.3 274.2 228.8C297 215.3 320 202.7 342.8 219.7C365.7 236.7 388.3 283.3 411.2 271.7C434 260 457 190 480 184.7C503 179.3 526 238.7 548.8 274.7C571.7 310.7 594.3 323.3 617.2 318.8C640 314.3 663 292.7 685.8 275.5C708.7 258.3 731.3 245.7 754.2 229.5C777 213.3 800 193.7 822.8 200C845.7 206.3 868.3 238.7 891.2 243.2C914 247.7 937 224.3 948.5 212.7L960 201L960 134L948.5 147.5C937 161 914 188 891.2 181.7C868.3 175.3 845.7 135.7 822.8 126.7C800 117.7 777 139.3 754.2 158.3C731.3 177.3 708.7 193.7 685.8 216.2C663 238.7 640 267.3 617.2 270.8C594.3 274.3 571.7 252.7 548.8 219.3C526 186 503 141 480 146.5C457 152 434 208 411.2 216.2C388.3 224.3 365.7 184.7 342.8 165.7C320 146.7 297 148.3 274.2 162.7C251.3 177 228.7 204 205.8 209.5C183 215 160 199 137.2 191.8C114.3 184.7 91.7 186.3 68.8 168.3C46 150.3 23 112.7 11.5 93.8L0 75Z" fill="#2f203a"></path><path d="M0 125L11.5 153.8C23 182.7 46 240.3 68.8 262.8C91.7 285.3 114.3 272.7 137.2 274.5C160 276.3 183 292.7 205.8 289.2C228.7 285.7 251.3 262.3 274.2 249.7C297 237 320 235 342.8 253.8C365.7 272.7 388.3 312.3 411.2 304.3C434 296.3 457 240.7 480 233.5C503 226.3 526 267.7 548.8 293.7C571.7 319.7 594.3 330.3 617.2 331.2C640 332 663 323 685.8 316.7C708.7 310.3 731.3 306.7 754.2 291.3C777 276 800 249 822.8 253.5C845.7 258 868.3 294 891.2 296.8C914 299.7 937 269.3 948.5 254.2L960 239L960 199L948.5 210.7C937 222.3 914 245.7 891.2 241.2C868.3 236.7 845.7 204.3 822.8 198C800 191.7 777 211.3 754.2 227.5C731.3 243.7 708.7 256.3 685.8 273.5C663 290.7 640 312.3 617.2 316.8C594.3 321.3 571.7 308.7 548.8 272.7C526 236.7 503 177.3 480 182.7C457 188 434 258 411.2 269.7C388.3 281.3 365.7 234.7 342.8 217.7C320 200.7 297 213.3 274.2 226.8C251.3 240.3 228.7 254.7 205.8 252C183 249.3 160 229.7 137.2 228.8C114.3 228 91.7 246 68.8 230.7C46 215.3 23 166.7 11.5 142.3L0 118Z" fill="#391a34"></path><path d="M0 374L11.5 388.3C23 402.7 46 431.3 68.8 425.8C91.7 420.3 114.3 380.7 137.2 365.3C160 350 183 359 205.8 364.5C228.7 370 251.3 372 274.2 382.8C297 393.7 320 413.3 342.8 425C365.7 436.7 388.3 440.3 411.2 435C434 429.7 457 415.3 480 418.8C503 422.3 526 443.7 548.8 445.3C571.7 447 594.3 429 617.2 419.2C640 409.3 663 407.7 685.8 406.8C708.7 406 731.3 406 754.2 400.7C777 395.3 800 384.7 822.8 385.5C845.7 386.3 868.3 398.7 891.2 410.3C914 422 937 433 948.5 438.5L960 444L960 237L948.5 252.2C937 267.3 914 297.7 891.2 294.8C868.3 292 845.7 256 822.8 251.5C800 247 777 274 754.2 289.3C731.3 304.7 708.7 308.3 685.8 314.7C663 321 640 330 617.2 329.2C594.3 328.3 571.7 317.7 548.8 291.7C526 265.7 503 224.3 480 231.5C457 238.7 434 294.3 411.2 302.3C388.3 310.3 365.7 270.7 342.8 251.8C320 233 297 235 274.2 247.7C251.3 260.3 228.7 283.7 205.8 287.2C183 290.7 160 274.3 137.2 272.5C114.3 270.7 91.7 283.3 68.8 260.8C46 238.3 23 180.7 11.5 151.8L0 123Z" fill="#41132a"></path><path d="M0 411L11.5 425.5C23 440 46 469 68.8 477.2C91.7 485.3 114.3 472.7 137.2 465.5C160 458.3 183 456.7 205.8 466.5C228.7 476.3 251.3 497.7 274.2 505.7C297 513.7 320 508.3 342.8 505.7C365.7 503 388.3 503 411.2 499.5C434 496 457 489 480 485.5C503 482 526 482 548.8 482C571.7 482 594.3 482 617.2 479.2C640 476.3 663 470.7 685.8 465.2C708.7 459.7 731.3 454.3 754.2 451.7C777 449 800 449 822.8 450C845.7 451 868.3 453 891.2 463C914 473 937 491 948.5 500L960 509L960 442L948.5 436.5C937 431 914 420 891.2 408.3C868.3 396.7 845.7 384.3 822.8 383.5C800 382.7 777 393.3 754.2 398.7C731.3 404 708.7 404 685.8 404.8C663 405.7 640 407.3 617.2 417.2C594.3 427 571.7 445 548.8 443.3C526 441.7 503 420.3 480 416.8C457 413.3 434 427.7 411.2 433C388.3 438.3 365.7 434.7 342.8 423C320 411.3 297 391.7 274.2 380.8C251.3 370 228.7 368 205.8 362.5C183 357 160 348 137.2 363.3C114.3 378.7 91.7 418.3 68.8 423.8C46 429.3 23 400.7 11.5 386.3L0 372Z" fill="#450c1c"></path><path d="M0 541L11.5 541C23 541 46 541 68.8 541C91.7 541 114.3 541 137.2 541C160 541 183 541 205.8 541C228.7 541 251.3 541 274.2 541C297 541 320 541 342.8 541C365.7 541 388.3 541 411.2 541C434 541 457 541 480 541C503 541 526 541 548.8 541C571.7 541 594.3 541 617.2 541C640 541 663 541 685.8 541C708.7 541 731.3 541 754.2 541C777 541 800 541 822.8 541C845.7 541 868.3 541 891.2 541C914 541 937 541 948.5 541L960 541L960 507L948.5 498C937 489 914 471 891.2 461C868.3 451 845.7 449 822.8 448C800 447 777 447 754.2 449.7C731.3 452.3 708.7 457.7 685.8 463.2C663 468.7 640 474.3 617.2 477.2C594.3 480 571.7 480 548.8 480C526 480 503 480 480 483.5C457 487 434 494 411.2 497.5C388.3 501 365.7 501 342.8 503.7C320 506.3 297 511.7 274.2 503.7C251.3 495.7 228.7 474.3 205.8 464.5C183 454.7 160 456.3 137.2 463.5C114.3 470.7 91.7 483.3 68.8 475.2C46 467 23 438 11.5 423.5L0 409Z" fill="#450a0a"></path></svg>