<?xml version="1.0" standalone="no"?>
<!DOCTYPE svg PUBLIC "-//W3C//DTD SVG 20010904//EN"
 "http://www.w3.org/TR/2001/REC-SVG-20010904/DTD/svg10.dtd">
<svg version="1.0" xmlns="http://www.w3.org/2000/svg"
 width="350.000000pt" height="350.000000pt" viewBox="0 0 350.000000 350.000000"
 preserveAspectRatio="xMidYMid meet">
<metadata>
Created by potrace 1.14, written by Peter Selinger 2001-2017
</metadata>
<g transform="translate(0.000000,350.000000) scale(0.100000,-0.100000)"
fill="#000000" stroke="none">
<path d="M1156 3203 c-1 -1 -46 -3 -101 -4 -62 -1 -121 -8 -157 -19 -172 -53
-318 -235 -252 -316 8 -10 13 -13 9 -6 -3 6 -1 12 4 12 6 0 11 -6 11 -12 0 -9
4 -8 10 2 9 13 10 13 10 0 0 -9 3 -11 8 -5 17 24 48 12 43 -18 -2 -10 42 13
51 27 6 8 8 8 8 0 0 -14 33 -14 43 0 6 7 7 5 4 -5 -3 -9 4 -21 15 -28 18 -11
18 -10 8 10 -7 13 -8 19 -2 15 6 -3 14 -2 17 4 5 8 11 7 21 -1 11 -9 18 -8 32
2 15 13 16 12 3 -4 -8 -10 -20 -16 -27 -13 -7 3 -15 -2 -18 -10 -9 -24 -7 -31
4 -14 8 13 12 13 32 1 21 -13 22 -13 10 1 -10 13 -10 17 4 22 21 8 24 8 24 -5
0 -5 -6 -7 -12 -3 -9 5 -9 2 1 -9 15 -19 26 -23 15 -5 -5 8 -2 9 10 5 14 -6
15 -4 5 16 -11 20 -11 21 4 8 16 -12 22 -8 18 12 -1 5 3 6 9 2 7 -4 7 -13 -1
-26 -6 -12 -8 -23 -5 -27 3 -3 6 0 6 7 0 7 5 9 12 5 6 -4 8 -3 4 4 -3 6 -2 13
4 17 6 3 10 -4 11 -17 0 -16 2 -19 7 -8 4 8 14 14 22 14 8 -1 23 -2 33 -3 10
0 16 -5 13 -9 -3 -5 1 -9 10 -9 10 0 12 7 8 21 -4 15 -3 17 4 8 5 -8 15 -13
23 -12 29 4 40 0 33 -12 -5 -9 -2 -8 10 1 13 11 14 16 4 22 -20 13 -4 11 33
-5 19 -7 40 -11 48 -8 9 3 11 0 6 -8 -5 -9 -4 -11 4 -6 6 4 9 12 6 17 -4 5 -1
9 4 9 6 0 11 -10 12 -22 0 -22 1 -22 9 -3 5 11 9 15 9 9 1 -6 8 -11 16 -11 8
0 11 5 8 10 -3 5 0 7 8 5 8 -3 13 -10 12 -16 -3 -13 57 -4 76 11 11 9 13 9 8
1 -4 -7 0 -15 9 -18 8 -3 13 -2 10 3 -10 15 49 -2 62 -18 8 -9 11 -11 7 -4 -4
9 4 8 27 -3 18 -8 45 -20 61 -27 16 -7 25 -17 22 -25 -3 -7 0 -10 6 -7 11 8
90 -75 83 -87 -3 -4 -1 -8 4 -8 5 0 17 -21 26 -47 10 -27 21 -57 26 -68 20
-47 29 -210 16 -295 -8 -51 -35 -140 -47 -155 -6 -9 -261 -13 -279 -5 -3 1 -8
2 -11 2 -4 -1 -13 11 -20 27 -11 21 -14 92 -14 304 0 153 -3 277 -7 277 -5 0
-8 6 -8 13 0 19 -35 45 -72 52 -18 4 -168 7 -334 6 -326 -1 -362 -6 -398 -54
-19 -26 -20 -47 -20 -1154 -1 -621 1 -1141 4 -1158 3 -17 15 -35 28 -41 12 -6
20 -13 18 -15 -2 -2 44 -4 104 -4 60 0 106 -3 104 -7 -3 -5 -1 -8 5 -8 5 0 13
5 16 10 3 6 12 10 18 9 8 0 8 -2 -1 -6 -10 -4 -9 -9 5 -20 17 -13 16 -13 -4
-4 -16 8 -24 8 -29 -1 -4 -7 -4 -10 1 -6 4 4 17 2 28 -3 15 -8 22 -8 28 2 7
12 11 11 19 -1 7 -11 10 -11 10 -2 0 7 4 11 9 8 5 -4 7 4 5 16 l-5 23 10 -22
c6 -13 15 -23 21 -23 6 0 9 4 6 9 -3 5 2 15 12 22 15 12 15 12 5 -1 -9 -12 -8
-20 4 -35 15 -20 15 -20 9 2 -4 12 -2 24 4 28 6 4 9 1 8 -6 -2 -6 3 -14 10
-16 8 -3 10 2 6 14 -5 17 -5 17 6 0 6 -9 8 -23 4 -30 -6 -9 -3 -8 8 1 9 7 15
23 13 34 -3 11 -1 17 3 14 4 -4 8 -12 8 -17 1 -5 2 -13 3 -18 0 -5 9 -8 19 -7
9 2 21 -2 25 -8 5 -6 6 -2 2 11 -3 12 -1 24 5 28 6 4 10 3 9 -2 -3 -19 2 -30
16 -30 11 0 12 4 3 14 -6 7 -8 16 -4 20 3 3 6 1 6 -5 0 -7 5 -12 11 -12 5 0 7
6 4 13 -4 6 2 2 13 -10 24 -28 30 -29 28 -5 -1 12 6 17 24 17 14 0 31 4 39 9
9 6 12 5 7 -2 -3 -6 -2 -13 4 -17 6 -4 8 -11 4 -16 -3 -6 3 -5 15 3 12 7 21
16 21 20 0 17 30 7 31 -9 0 -16 1 -15 8 2 6 14 18 20 47 21 45 1 78 -12 68
-28 -4 -7 -2 -8 5 -4 9 6 9 11 0 22 -12 15 -4 18 36 15 11 -1 27 -2 35 -3 8 0
21 -6 29 -12 8 -6 12 -6 9 -1 -4 7 27 10 87 10 51 0 91 -3 88 -8 -2 -4 -8 -5
-13 -2 -5 3 -11 1 -15 -5 -3 -5 -11 -10 -16 -10 -6 0 -8 4 -5 8 3 5 -1 9 -9 9
-8 0 -15 -4 -15 -8 0 -12 32 -20 44 -10 7 6 18 6 25 1 17 -10 41 -2 41 12 0 6
-8 5 -17 -3 -15 -11 -16 -11 -6 1 7 7 23 15 35 16 13 2 17 0 11 -2 -18 -8 -16
-17 8 -32 12 -8 18 -9 14 -3 -3 6 -1 11 4 11 6 0 11 5 11 11 0 8 -6 7 -17 -2
-16 -13 -17 -12 -5 3 13 16 35 18 48 5 10 -10 26 -9 20 1 -2 4 8 8 23 7 23 0
27 -4 25 -22 -1 -13 2 -23 7 -23 5 0 9 4 9 8 0 5 6 9 13 10 26 2 47 8 54 17 4
4 2 5 -6 0 -10 -6 -12 -4 -7 4 6 9 11 9 22 0 9 -8 14 -8 14 -1 0 7 15 10 38 8
20 -2 41 -1 46 2 19 11 66 10 60 -2 -3 -6 1 -3 9 6 8 10 17 15 20 11 4 -3 13
0 22 7 8 7 15 9 15 5 0 -4 6 -3 13 4 10 8 17 7 27 -2 10 -9 11 -9 6 0 -4 8 8
16 36 24 24 7 46 12 51 11 4 -1 7 2 7 8 0 6 3 9 8 9 21 -4 32 2 26 13 -5 8 -2
9 9 5 10 -3 17 -3 17 1 0 7 54 34 65 32 11 -1 33 25 27 34 -3 5 0 6 6 2 6 -3
14 0 19 7 4 7 16 17 26 20 11 4 15 12 11 19 -5 7 -1 9 14 6 16 -4 19 -2 15 10
-4 10 -2 13 5 8 7 -4 12 -1 12 9 0 11 5 15 14 12 10 -4 13 -1 10 8 -7 17 22
49 36 40 6 -3 7 1 4 9 -3 9 -1 16 5 16 6 0 11 9 11 19 0 10 7 21 15 25 8 3 15
10 15 16 0 6 7 18 15 27 8 8 13 19 9 24 -3 5 2 12 10 15 9 3 13 10 10 15 -3 5
0 9 6 9 6 0 9 4 5 9 -3 5 0 13 6 16 5 4 8 13 5 21 -3 8 -1 14 5 14 6 0 9 7 5
15 -3 8 -1 15 5 15 6 0 9 7 5 15 -3 8 -1 15 4 15 5 0 7 7 4 15 -4 8 -2 15 2
15 5 0 10 17 12 38 4 50 6 65 15 78 3 6 3 14 0 18 -10 10 -13 36 -4 36 4 0 8
7 8 15 0 8 -4 15 -9 15 -5 0 -6 6 -2 12 10 15 13 48 5 48 -3 0 -7 24 -9 53 -6
85 -6 87 -14 87 -4 0 -6 10 -4 23 2 12 0 27 -5 33 -5 6 -10 23 -11 38 -1 14
-6 26 -11 26 -4 0 -5 5 -2 10 3 5 1 10 -4 10 -6 0 -11 9 -11 19 0 11 -6 26
-14 33 -7 8 -17 24 -20 36 -4 12 -12 22 -18 22 -6 0 -8 3 -5 6 4 4 -2 14 -12
23 -10 9 -23 26 -30 39 -6 12 -18 22 -26 22 -7 0 -16 9 -20 19 -3 11 -14 22
-23 25 -9 3 -29 17 -44 31 -15 14 -31 25 -35 25 -5 0 -15 6 -25 14 -9 8 -19
12 -22 9 -3 -4 -6 -1 -6 6 0 7 -4 10 -9 6 -5 -3 -16 1 -23 9 -8 7 -43 24 -79
37 -35 13 -66 27 -67 31 -2 5 -7 6 -12 3 -4 -3 -10 2 -14 10 -6 17 51 88 64
80 5 -3 17 8 26 25 13 20 20 26 26 17 5 -8 8 -5 8 9 0 12 8 28 18 35 16 13 16
12 2 -6 -12 -17 -12 -18 0 -7 8 7 16 17 16 23 1 5 2 14 3 20 0 5 6 7 13 3 8
-5 9 -2 5 10 -4 10 -3 15 3 11 6 -3 10 3 10 14 0 20 11 26 35 21 6 -1 5 4 -2
10 -15 17 3 70 25 71 11 0 12 2 5 6 -9 3 -10 10 -3 24 6 10 8 19 6 19 -3 0 0
12 6 28 11 27 18 293 7 286 -3 -2 -6 12 -7 31 -1 19 -8 50 -16 70 -9 20 -15
39 -14 43 1 4 -3 18 -9 32 -6 14 -11 28 -12 33 -2 19 -78 126 -115 163 -51 50
-174 134 -198 134 -10 0 -18 4 -18 10 0 5 -3 9 -7 8 -10 -2 -64 13 -78 21 -5
3 -14 6 -20 7 -5 1 -26 5 -45 9 -19 4 -47 7 -62 8 -16 1 -28 4 -28 7 0 3 -19
5 -42 5 -24 0 -47 2 -53 5 -9 4 -774 8 -779 3z m-386 -343 c0 -5 -5 -10 -11
-10 -5 0 -7 5 -4 10 3 6 8 10 11 10 2 0 4 -4 4 -10z m640 -30 c6 -11 8 -20 6
-20 -3 0 -10 9 -16 20 -6 11 -8 20 -6 20 3 0 10 -9 16 -20z m40 0 c0 -5 -4
-10 -10 -10 -5 0 -10 5 -10 10 0 6 5 10 10 10 6 0 10 -4 10 -10z m130 -1099
c7 -2 -23 -21 -33 -21 -5 0 -5 5 -1 12 5 7 3 8 -5 3 -22 -13 4 -28 27 -16 10
6 23 7 27 3 5 -4 6 -2 2 3 -3 6 3 12 14 12 10 1 19 -2 19 -8 0 -5 -5 -9 -11
-9 -5 0 -7 -5 -3 -11 4 -8 9 -7 14 2 12 19 39 19 50 1 5 -10 10 -12 10 -4 0 6
5 12 11 12 5 0 7 -4 4 -10 -3 -6 4 -9 17 -8 59 5 205 -93 270 -181 31 -43 72
-135 83 -186 16 -81 18 -107 19 -195 0 -156 -19 -250 -75 -363 -28 -57 -69
-117 -69 -102 0 4 -7 2 -15 -5 -8 -6 -20 -8 -27 -4 -17 10 -58 12 -64 2 -3 -5
-10 -5 -17 -1 -16 10 -58 10 -63 1 -3 -5 -10 -5 -17 -1 -16 10 -58 10 -63 1
-3 -5 -11 -5 -17 -1 -16 10 -77 10 -104 1 -13 -4 -23 -4 -23 0 0 4 -10 8 -22
9 -53 4 -52 -6 -52 513 -1 264 2 480 6 480 4 0 5 6 3 13 -3 6 -1 17 3 24 11
18 61 41 80 38 9 -2 19 -4 22 -4z m-620 -1425 c0 -3 -4 -8 -10 -11 -5 -3 -10
-1 -10 4 0 6 5 11 10 11 6 0 10 -2 10 -4z m197 -11 c0 -8 -4 -12 -9 -9 -5 3
-6 10 -3 15 9 13 12 11 12 -6z m213 11 c0 -3 -4 -8 -10 -11 -5 -3 -10 -1 -10
4 0 6 5 11 10 11 6 0 10 -2 10 -4z m698 -1 c-10 -10 -49 -14 -43 -4 4 5 16 9
27 9 12 0 19 -2 16 -5z"/>
<path d="M1787 1659 c7 -7 15 -10 18 -7 3 3 -2 9 -12 12 -14 6 -15 5 -6 -5z"/>
<path d="M1896 1578 c3 -5 10 -6 15 -3 13 9 11 12 -6 12 -8 0 -12 -4 -9 -9z"/>
<path d="M715 2840 c3 -5 8 -10 11 -10 2 0 4 5 4 10 0 6 -5 10 -11 10 -5 0 -7
-4 -4 -10z"/>
<path d="M795 2839 l-20 -9 20 3 c11 1 25 -4 31 -12 9 -12 12 -12 19 0 5 8 5
11 0 7 -4 -4 -13 -1 -19 6 -8 10 -17 11 -31 5z"/>
<path d="M1175 2821 c-3 -5 -2 -12 3 -15 5 -3 9 1 9 9 0 17 -3 19 -12 6z"/>
<path d="M1233 2815 c0 -8 4 -12 9 -9 4 3 8 9 8 15 0 5 -4 9 -8 9 -5 0 -9 -7
-9 -15z"/>
<path d="M2335 320 c3 -5 8 -10 11 -10 2 0 4 5 4 10 0 6 -5 10 -11 10 -5 0 -7
-4 -4 -10z"/>
<path d="M740 300 c-12 -7 -10 -9 7 -7 12 0 19 5 17 9 -6 10 -6 10 -24 -2z"/>
<path d="M781 294 c0 -11 3 -14 6 -6 3 7 2 16 -1 19 -3 4 -6 -2 -5 -13z"/>
<path d="M810 295 c0 -8 4 -15 10 -15 5 0 7 7 4 15 -4 8 -8 15 -10 15 -2 0 -4
-7 -4 -15z"/>
<path d="M843 289 c8 -13 13 -14 23 -5 15 14 9 25 -15 23 -15 -1 -16 -4 -8
-18z"/>
<path d="M1471 294 c0 -11 3 -14 6 -6 3 7 2 16 -1 19 -3 4 -6 -2 -5 -13z"/>
<path d="M1570 300 c0 -6 4 -9 9 -6 5 4 12 1 14 -4 3 -6 4 -5 3 2 -3 15 -26
23 -26 8z"/>
<path d="M1610 301 c0 -6 4 -13 10 -16 6 -3 7 1 4 9 -7 18 -14 21 -14 7z"/>
<path d="M1660 298 c0 -4 4 -8 9 -8 6 0 12 4 15 8 3 5 -1 9 -9 9 -8 0 -15 -4
-15 -9z"/>
<path d="M1725 300 c-3 -5 -1 -10 4 -10 6 0 11 5 11 10 0 6 -2 10 -4 10 -3 0
-8 -4 -11 -10z"/>
<path d="M1930 301 c0 -5 7 -12 16 -15 14 -5 15 -4 4 9 -14 17 -20 19 -20 6z"/>
<path d="M1976 301 c-3 -5 1 -11 9 -14 9 -4 12 -1 8 9 -6 16 -10 17 -17 5z"/>
<path d="M2215 300 c3 -5 8 -10 11 -10 2 0 4 5 4 10 0 6 -5 10 -11 10 -5 0 -7
-4 -4 -10z"/>
<path d="M1278 293 c6 -3 9 -10 5 -16 -4 -7 1 -6 10 2 12 9 17 10 17 2 0 -7 5
-9 10 -6 19 12 10 20 -22 21 -18 1 -27 -1 -20 -3z"/>
<path d="M1695 280 c3 -5 8 -10 11 -10 2 0 4 5 4 10 0 6 -5 10 -11 10 -5 0 -7
-4 -4 -10z"/>
<path d="M998 263 c7 -3 16 -2 19 1 4 3 -2 6 -13 5 -11 0 -14 -3 -6 -6z"/>
</g>
</svg>
